<svg width="12" height="14" viewBox="0 0 12 14" fill="none" xmlns="http://www.w3.org/2000/svg"><path fill-rule="evenodd" clip-rule="evenodd" d="M8.5 4C8.5 5.38071 7.38071 6.5 6 6.5 4.61929 6.5 3.5 5.38071 3.5 4 3.5 2.61929 4.61929 1.5 6 1.5 7.38071 1.5 8.5 2.61929 8.5 4zM10 4C10 6.20914 8.20914 8 6 8 3.79086 8 2 6.20914 2 4 2 1.79086 3.79086.0 6 0 8.20914.0 10 1.79086 10 4zM4 9.25C1.92893 9.25.25 10.9289.25 13v1h1.5V13C1.75 11.7574 2.75736 10.75 4 10.75H8C9.24264 10.75 10.25 11.7574 10.25 13v1h1.5V13C11.75 10.9289 10.0711 9.25 8 9.25H4z" fill="#000"/></svg>